<mxfile host="app.diagrams.net" agent="Mozilla/5.0 (Windows NT 10.0; Win64; x64) AppleWebKit/537.36 (KHTML, like Gecko) Chrome/130.0.0.0 Safari/537.36 Edg/130.0.0.0" version="24.8.1">
  <diagram id="C5RBs43oDa-KdzZeNtuy" name="Page-1">
    <mxGraphModel dx="2377" dy="1262" grid="1" gridSize="10" guides="1" tooltips="1" connect="1" arrows="1" fold="1" page="1" pageScale="1" pageWidth="827" pageHeight="1169" math="0" shadow="0">
      <root>
        <mxCell id="WIyWlLk6GJQsqaUBKTNV-0" />
        <mxCell id="WIyWlLk6GJQsqaUBKTNV-1" parent="WIyWlLk6GJQsqaUBKTNV-0" />
        <mxCell id="WIyWlLk6GJQsqaUBKTNV-2" value="" style="rounded=0;html=1;jettySize=auto;orthogonalLoop=1;fontSize=11;endArrow=block;endFill=0;endSize=8;strokeWidth=1;shadow=0;labelBackgroundColor=none;edgeStyle=orthogonalEdgeStyle;entryX=0.5;entryY=0;entryDx=0;entryDy=0;strokeColor=#457B9D;fontColor=default;" parent="WIyWlLk6GJQsqaUBKTNV-1" target="qUJMt_EVvqmMXiAQpJi--38" edge="1">
          <mxGeometry relative="1" as="geometry">
            <mxPoint x="299.5" y="270" as="sourcePoint" />
            <mxPoint x="300" y="310" as="targetPoint" />
          </mxGeometry>
        </mxCell>
        <mxCell id="WIyWlLk6GJQsqaUBKTNV-3" value="START" style="rounded=0;whiteSpace=wrap;html=1;fontSize=12;glass=0;strokeWidth=1;shadow=0;labelBackgroundColor=none;fillColor=#A8DADC;strokeColor=#457B9D;fontColor=#1D3557;" parent="WIyWlLk6GJQsqaUBKTNV-1" vertex="1">
          <mxGeometry x="240" y="80" width="120" height="40" as="geometry" />
        </mxCell>
        <mxCell id="qUJMt_EVvqmMXiAQpJi--6" value="Text Content Analysis" style="swimlane;fontStyle=0;childLayout=stackLayout;horizontal=1;startSize=30;horizontalStack=0;resizeParent=1;resizeParentMax=0;resizeLast=0;collapsible=1;marginBottom=0;whiteSpace=wrap;html=1;rounded=0;labelBackgroundColor=none;fillColor=#A8DADC;strokeColor=#457B9D;fontColor=#1D3557;" parent="WIyWlLk6GJQsqaUBKTNV-1" vertex="1">
          <mxGeometry x="370" y="750" width="160" height="230" as="geometry">
            <mxRectangle x="340" y="230" width="140" height="30" as="alternateBounds" />
          </mxGeometry>
        </mxCell>
        <mxCell id="qUJMt_EVvqmMXiAQpJi--7" value="&lt;div&gt;Backspace&lt;/div&gt;" style="text;strokeColor=#d79b00;fillColor=#ffe6cc;align=left;verticalAlign=middle;spacingLeft=4;spacingRight=4;overflow=hidden;points=[[0,0.5],[1,0.5]];portConstraint=eastwest;rotatable=0;whiteSpace=wrap;html=1;rounded=0;labelBackgroundColor=none;" parent="qUJMt_EVvqmMXiAQpJi--6" vertex="1">
          <mxGeometry y="30" width="160" height="40" as="geometry" />
        </mxCell>
        <mxCell id="qUJMt_EVvqmMXiAQpJi--8" value="Enter/Return" style="text;strokeColor=#d79b00;fillColor=#ffe6cc;align=left;verticalAlign=middle;spacingLeft=4;spacingRight=4;overflow=hidden;points=[[0,0.5],[1,0.5]];portConstraint=eastwest;rotatable=0;whiteSpace=wrap;html=1;rounded=0;labelBackgroundColor=none;" parent="qUJMt_EVvqmMXiAQpJi--6" vertex="1">
          <mxGeometry y="70" width="160" height="40" as="geometry" />
        </mxCell>
        <mxCell id="qUJMt_EVvqmMXiAQpJi--9" value="Delete" style="text;strokeColor=#d79b00;fillColor=#ffe6cc;align=left;verticalAlign=middle;spacingLeft=4;spacingRight=4;overflow=hidden;points=[[0,0.5],[1,0.5]];portConstraint=eastwest;rotatable=0;whiteSpace=wrap;html=1;rounded=0;labelBackgroundColor=none;" parent="qUJMt_EVvqmMXiAQpJi--6" vertex="1">
          <mxGeometry y="110" width="160" height="40" as="geometry" />
        </mxCell>
        <mxCell id="qUJMt_EVvqmMXiAQpJi--16" value="&#xa;Shift&#xa;&#xa;" style="text;strokeColor=#d79b00;fillColor=#ffe6cc;align=left;verticalAlign=middle;spacingLeft=4;spacingRight=4;overflow=hidden;points=[[0,0.5],[1,0.5]];portConstraint=eastwest;rotatable=0;whiteSpace=wrap;html=1;rounded=0;labelBackgroundColor=none;" parent="qUJMt_EVvqmMXiAQpJi--6" vertex="1">
          <mxGeometry y="150" width="160" height="40" as="geometry" />
        </mxCell>
        <mxCell id="qUJMt_EVvqmMXiAQpJi--17" value="&lt;br&gt;Ctrl + Z&lt;div&gt;&lt;br/&gt;&lt;/div&gt;" style="text;strokeColor=#d79b00;fillColor=#ffe6cc;align=left;verticalAlign=middle;spacingLeft=4;spacingRight=4;overflow=hidden;points=[[0,0.5],[1,0.5]];portConstraint=eastwest;rotatable=0;whiteSpace=wrap;html=1;rounded=0;labelBackgroundColor=none;" parent="qUJMt_EVvqmMXiAQpJi--6" vertex="1">
          <mxGeometry y="190" width="160" height="40" as="geometry" />
        </mxCell>
        <mxCell id="qUJMt_EVvqmMXiAQpJi--22" value="Text generated by Human" style="rounded=0;whiteSpace=wrap;html=1;labelBackgroundColor=none;fillColor=#A8DADC;strokeColor=#457B9D;fontColor=#1D3557;" parent="WIyWlLk6GJQsqaUBKTNV-1" vertex="1">
          <mxGeometry x="2008" y="1580" width="120" height="60" as="geometry" />
        </mxCell>
        <mxCell id="qUJMt_EVvqmMXiAQpJi--24" value="Typing Behavior Analysis" style="swimlane;fontStyle=0;childLayout=stackLayout;horizontal=1;startSize=30;horizontalStack=0;resizeParent=1;resizeParentMax=0;resizeLast=0;collapsible=1;marginBottom=0;whiteSpace=wrap;html=1;rounded=0;labelBackgroundColor=none;fillColor=#A8DADC;strokeColor=#457B9D;fontColor=#1D3557;" parent="WIyWlLk6GJQsqaUBKTNV-1" vertex="1">
          <mxGeometry x="367.5" y="540" width="165" height="200" as="geometry">
            <mxRectangle x="400" y="360" width="170" height="30" as="alternateBounds" />
          </mxGeometry>
        </mxCell>
        <mxCell id="qUJMt_EVvqmMXiAQpJi--25" value="Average Typing Speed" style="text;strokeColor=#d79b00;fillColor=#ffe6cc;align=left;verticalAlign=middle;spacingLeft=4;spacingRight=4;overflow=hidden;points=[[0,0.5],[1,0.5]];portConstraint=eastwest;rotatable=0;whiteSpace=wrap;html=1;rounded=0;labelBackgroundColor=none;" parent="qUJMt_EVvqmMXiAQpJi--24" vertex="1">
          <mxGeometry y="30" width="165" height="40" as="geometry" />
        </mxCell>
        <mxCell id="qUJMt_EVvqmMXiAQpJi--26" value="Overall duration of answer given" style="text;strokeColor=#d79b00;fillColor=#ffe6cc;align=left;verticalAlign=middle;spacingLeft=4;spacingRight=4;overflow=hidden;points=[[0,0.5],[1,0.5]];portConstraint=eastwest;rotatable=0;whiteSpace=wrap;html=1;rounded=0;labelBackgroundColor=none;" parent="qUJMt_EVvqmMXiAQpJi--24" vertex="1">
          <mxGeometry y="70" width="165" height="50" as="geometry" />
        </mxCell>
        <mxCell id="qUJMt_EVvqmMXiAQpJi--46" value="Stand Deviation" style="text;strokeColor=#d79b00;fillColor=#ffe6cc;align=left;verticalAlign=middle;spacingLeft=4;spacingRight=4;overflow=hidden;points=[[0,0.5],[1,0.5]];portConstraint=eastwest;rotatable=0;whiteSpace=wrap;html=1;rounded=0;labelBackgroundColor=none;" parent="qUJMt_EVvqmMXiAQpJi--24" vertex="1">
          <mxGeometry y="120" width="165" height="40" as="geometry" />
        </mxCell>
        <mxCell id="qUJMt_EVvqmMXiAQpJi--27" value="Keystroke Interval Consistency" style="text;strokeColor=#d79b00;fillColor=#ffe6cc;align=left;verticalAlign=middle;spacingLeft=4;spacingRight=4;overflow=hidden;points=[[0,0.5],[1,0.5]];portConstraint=eastwest;rotatable=0;whiteSpace=wrap;html=1;rounded=0;labelBackgroundColor=none;" parent="qUJMt_EVvqmMXiAQpJi--24" vertex="1">
          <mxGeometry y="160" width="165" height="40" as="geometry" />
        </mxCell>
        <mxCell id="qUJMt_EVvqmMXiAQpJi--36" value="Recieve Text" style="rhombus;whiteSpace=wrap;html=1;shadow=0;fontFamily=Helvetica;fontSize=12;align=center;strokeWidth=1;spacing=6;spacingTop=-4;rounded=0;labelBackgroundColor=none;fillColor=#A8DADC;strokeColor=#457B9D;fontColor=#1D3557;" parent="WIyWlLk6GJQsqaUBKTNV-1" vertex="1">
          <mxGeometry x="250" y="190" width="100" height="80" as="geometry" />
        </mxCell>
        <mxCell id="qUJMt_EVvqmMXiAQpJi--37" value="" style="endArrow=classic;html=1;rounded=0;entryX=0.5;entryY=0;entryDx=0;entryDy=0;labelBackgroundColor=none;strokeColor=#457B9D;fontColor=default;" parent="WIyWlLk6GJQsqaUBKTNV-1" target="qUJMt_EVvqmMXiAQpJi--36" edge="1">
          <mxGeometry width="50" height="50" relative="1" as="geometry">
            <mxPoint x="300" y="120" as="sourcePoint" />
            <mxPoint x="300" y="150" as="targetPoint" />
          </mxGeometry>
        </mxCell>
        <mxCell id="qUJMt_EVvqmMXiAQpJi--38" value="Analyse for Key Indicators" style="rhombus;whiteSpace=wrap;html=1;rounded=0;labelBackgroundColor=none;fillColor=#A8DADC;strokeColor=#457B9D;fontColor=#1D3557;" parent="WIyWlLk6GJQsqaUBKTNV-1" vertex="1">
          <mxGeometry x="230" y="390" width="140" height="130" as="geometry" />
        </mxCell>
        <mxCell id="qUJMt_EVvqmMXiAQpJi--43" value="AI Flag Threshold&lt;div&gt;&lt;br&gt;&lt;/div&gt;" style="rhombus;whiteSpace=wrap;html=1;rounded=0;labelBackgroundColor=none;fillColor=#A8DADC;strokeColor=#457B9D;fontColor=#1D3557;" parent="WIyWlLk6GJQsqaUBKTNV-1" vertex="1">
          <mxGeometry x="1850" y="1420" width="120" height="120" as="geometry" />
        </mxCell>
        <mxCell id="qUJMt_EVvqmMXiAQpJi--47" value="" style="endArrow=none;html=1;rounded=0;labelBackgroundColor=none;strokeColor=#457B9D;fontColor=default;" parent="WIyWlLk6GJQsqaUBKTNV-1" edge="1">
          <mxGeometry width="50" height="50" relative="1" as="geometry">
            <mxPoint x="300" y="880" as="sourcePoint" />
            <mxPoint x="300" y="520" as="targetPoint" />
          </mxGeometry>
        </mxCell>
        <mxCell id="qUJMt_EVvqmMXiAQpJi--48" value="" style="endArrow=classic;html=1;rounded=0;labelBackgroundColor=none;strokeColor=#457B9D;fontColor=default;" parent="WIyWlLk6GJQsqaUBKTNV-1" edge="1">
          <mxGeometry width="50" height="50" relative="1" as="geometry">
            <mxPoint x="300" y="880" as="sourcePoint" />
            <mxPoint x="360" y="880" as="targetPoint" />
          </mxGeometry>
        </mxCell>
        <mxCell id="qUJMt_EVvqmMXiAQpJi--49" value="" style="endArrow=classic;html=1;rounded=0;labelBackgroundColor=none;strokeColor=#457B9D;fontColor=default;" parent="WIyWlLk6GJQsqaUBKTNV-1" edge="1">
          <mxGeometry width="50" height="50" relative="1" as="geometry">
            <mxPoint x="300" y="670" as="sourcePoint" />
            <mxPoint x="360" y="670" as="targetPoint" />
          </mxGeometry>
        </mxCell>
        <mxCell id="qUJMt_EVvqmMXiAQpJi--50" value="" style="endArrow=classic;html=1;rounded=0;exitX=1;exitY=0.5;exitDx=0;exitDy=0;labelBackgroundColor=none;strokeColor=#457B9D;fontColor=default;" parent="WIyWlLk6GJQsqaUBKTNV-1" source="qUJMt_EVvqmMXiAQpJi--25" edge="1">
          <mxGeometry width="50" height="50" relative="1" as="geometry">
            <mxPoint x="570" y="590" as="sourcePoint" />
            <mxPoint x="1660" y="660" as="targetPoint" />
            <Array as="points">
              <mxPoint x="1660" y="590" />
            </Array>
          </mxGeometry>
        </mxCell>
        <mxCell id="qUJMt_EVvqmMXiAQpJi--52" value="Interval-based Key Press Tracking" style="rounded=0;whiteSpace=wrap;html=1;labelBackgroundColor=none;fillColor=#A8DADC;strokeColor=#457B9D;fontColor=#1D3557;" parent="WIyWlLk6GJQsqaUBKTNV-1" vertex="1">
          <mxGeometry x="1600" y="660" width="120" height="60" as="geometry" />
        </mxCell>
        <mxCell id="qUJMt_EVvqmMXiAQpJi--53" value="" style="endArrow=classic;html=1;rounded=0;labelBackgroundColor=none;strokeColor=#457B9D;fontColor=default;" parent="WIyWlLk6GJQsqaUBKTNV-1" edge="1">
          <mxGeometry width="50" height="50" relative="1" as="geometry">
            <mxPoint x="1659.58" y="720" as="sourcePoint" />
            <mxPoint x="1659.58" y="760" as="targetPoint" />
          </mxGeometry>
        </mxCell>
        <mxCell id="qUJMt_EVvqmMXiAQpJi--54" value="Average Typing Speed Calculation" style="rounded=0;whiteSpace=wrap;html=1;labelBackgroundColor=none;fillColor=#A8DADC;strokeColor=#457B9D;fontColor=#1D3557;" parent="WIyWlLk6GJQsqaUBKTNV-1" vertex="1">
          <mxGeometry x="1600" y="760" width="120" height="60" as="geometry" />
        </mxCell>
        <mxCell id="qUJMt_EVvqmMXiAQpJi--56" value="" style="endArrow=classic;html=1;rounded=0;labelBackgroundColor=none;strokeColor=#457B9D;fontColor=default;" parent="WIyWlLk6GJQsqaUBKTNV-1" edge="1">
          <mxGeometry width="50" height="50" relative="1" as="geometry">
            <mxPoint x="1659.58" y="820" as="sourcePoint" />
            <mxPoint x="1659.58" y="860" as="targetPoint" />
          </mxGeometry>
        </mxCell>
        <mxCell id="qUJMt_EVvqmMXiAQpJi--57" value="Real-time Speed Display" style="rounded=0;whiteSpace=wrap;html=1;labelBackgroundColor=none;fillColor=#A8DADC;strokeColor=#457B9D;fontColor=#1D3557;" parent="WIyWlLk6GJQsqaUBKTNV-1" vertex="1">
          <mxGeometry x="1600" y="860" width="120" height="60" as="geometry" />
        </mxCell>
        <mxCell id="qUJMt_EVvqmMXiAQpJi--61" value="" style="endArrow=classic;html=1;rounded=0;labelBackgroundColor=none;strokeColor=#457B9D;fontColor=default;" parent="WIyWlLk6GJQsqaUBKTNV-1" edge="1">
          <mxGeometry width="50" height="50" relative="1" as="geometry">
            <mxPoint x="1659.58" y="920" as="sourcePoint" />
            <mxPoint x="1659.58" y="970" as="targetPoint" />
          </mxGeometry>
        </mxCell>
        <mxCell id="qUJMt_EVvqmMXiAQpJi--62" value="Bot-like Behavior Detection" style="rounded=0;whiteSpace=wrap;html=1;labelBackgroundColor=none;fillColor=#A8DADC;strokeColor=#457B9D;fontColor=#1D3557;" parent="WIyWlLk6GJQsqaUBKTNV-1" vertex="1">
          <mxGeometry x="1600" y="970" width="120" height="60" as="geometry" />
        </mxCell>
        <mxCell id="qUJMt_EVvqmMXiAQpJi--67" value="" style="strokeWidth=2;html=1;shape=mxgraph.flowchart.annotation_2;align=left;labelPosition=right;pointerEvents=1;direction=south;rounded=0;labelBackgroundColor=none;fillColor=#A8DADC;strokeColor=#457B9D;fontColor=#1D3557;" parent="WIyWlLk6GJQsqaUBKTNV-1" vertex="1">
          <mxGeometry x="630" y="770" width="630" height="90" as="geometry" />
        </mxCell>
        <mxCell id="qUJMt_EVvqmMXiAQpJi--68" value="" style="endArrow=none;html=1;rounded=0;entryX=0;entryY=0.5;entryDx=0;entryDy=0;entryPerimeter=0;labelBackgroundColor=none;strokeColor=#457B9D;fontColor=default;" parent="WIyWlLk6GJQsqaUBKTNV-1" target="qUJMt_EVvqmMXiAQpJi--67" edge="1">
          <mxGeometry width="50" height="50" relative="1" as="geometry">
            <mxPoint x="530" y="770" as="sourcePoint" />
            <mxPoint x="800" y="770" as="targetPoint" />
            <Array as="points" />
          </mxGeometry>
        </mxCell>
        <mxCell id="qUJMt_EVvqmMXiAQpJi--79" value="Paste Event Detection" style="shape=process;whiteSpace=wrap;html=1;backgroundOutline=1;rounded=0;labelBackgroundColor=none;fillColor=#A8DADC;strokeColor=#457B9D;fontColor=#1D3557;" parent="WIyWlLk6GJQsqaUBKTNV-1" vertex="1">
          <mxGeometry x="1200" y="860" width="120" height="60" as="geometry" />
        </mxCell>
        <mxCell id="qUJMt_EVvqmMXiAQpJi--80" value="Key Press Event Handling" style="shape=process;whiteSpace=wrap;html=1;backgroundOutline=1;rounded=0;labelBackgroundColor=none;fillColor=#A8DADC;strokeColor=#457B9D;fontColor=#1D3557;" parent="WIyWlLk6GJQsqaUBKTNV-1" vertex="1">
          <mxGeometry x="570" y="860" width="120" height="60" as="geometry" />
        </mxCell>
        <mxCell id="qUJMt_EVvqmMXiAQpJi--90" value="" style="endArrow=none;html=1;rounded=0;labelBackgroundColor=none;strokeColor=#457B9D;fontColor=default;" parent="WIyWlLk6GJQsqaUBKTNV-1" edge="1">
          <mxGeometry width="50" height="50" relative="1" as="geometry">
            <mxPoint x="1260" y="1170" as="sourcePoint" />
            <mxPoint x="1260" y="920" as="targetPoint" />
          </mxGeometry>
        </mxCell>
        <mxCell id="qUJMt_EVvqmMXiAQpJi--91" value="" style="endArrow=classic;html=1;rounded=0;entryX=0;entryY=0.5;entryDx=0;entryDy=0;labelBackgroundColor=none;strokeColor=#457B9D;fontColor=default;" parent="WIyWlLk6GJQsqaUBKTNV-1" target="qUJMt_EVvqmMXiAQpJi--101" edge="1">
          <mxGeometry width="50" height="50" relative="1" as="geometry">
            <mxPoint x="1260" y="960" as="sourcePoint" />
            <mxPoint x="1290" y="960.0000000000002" as="targetPoint" />
          </mxGeometry>
        </mxCell>
        <mxCell id="qUJMt_EVvqmMXiAQpJi--92" value="" style="endArrow=classic;html=1;rounded=0;entryX=0;entryY=0.5;entryDx=0;entryDy=0;labelBackgroundColor=none;strokeColor=#457B9D;fontColor=default;" parent="WIyWlLk6GJQsqaUBKTNV-1" target="qUJMt_EVvqmMXiAQpJi--102" edge="1">
          <mxGeometry width="50" height="50" relative="1" as="geometry">
            <mxPoint x="1260" y="1030" as="sourcePoint" />
            <mxPoint x="1290" y="1030" as="targetPoint" />
          </mxGeometry>
        </mxCell>
        <mxCell id="qUJMt_EVvqmMXiAQpJi--94" value="" style="endArrow=classic;html=1;rounded=0;entryX=0;entryY=0.5;entryDx=0;entryDy=0;labelBackgroundColor=none;strokeColor=#457B9D;fontColor=default;" parent="WIyWlLk6GJQsqaUBKTNV-1" target="qUJMt_EVvqmMXiAQpJi--104" edge="1">
          <mxGeometry width="50" height="50" relative="1" as="geometry">
            <mxPoint x="1260" y="1169.69" as="sourcePoint" />
            <mxPoint x="1290" y="1169.69" as="targetPoint" />
          </mxGeometry>
        </mxCell>
        <mxCell id="qUJMt_EVvqmMXiAQpJi--101" value="Measure Text.Length" style="rounded=0;whiteSpace=wrap;html=1;labelBackgroundColor=none;fillColor=#A8DADC;strokeColor=#457B9D;fontColor=#1D3557;" parent="WIyWlLk6GJQsqaUBKTNV-1" vertex="1">
          <mxGeometry x="1310" y="930" width="110" height="60" as="geometry" />
        </mxCell>
        <mxCell id="qUJMt_EVvqmMXiAQpJi--102" value="Measure Text.Size" style="rounded=0;whiteSpace=wrap;html=1;labelBackgroundColor=none;fillColor=#A8DADC;strokeColor=#457B9D;fontColor=#1D3557;" parent="WIyWlLk6GJQsqaUBKTNV-1" vertex="1">
          <mxGeometry x="1310" y="1000" width="110" height="60" as="geometry" />
        </mxCell>
        <mxCell id="qUJMt_EVvqmMXiAQpJi--103" value="Limit paste row count" style="rounded=0;whiteSpace=wrap;html=1;labelBackgroundColor=none;fillColor=#A8DADC;strokeColor=#457B9D;fontColor=#1D3557;" parent="WIyWlLk6GJQsqaUBKTNV-1" vertex="1">
          <mxGeometry x="1310" y="1070" width="110" height="60" as="geometry" />
        </mxCell>
        <mxCell id="qUJMt_EVvqmMXiAQpJi--104" value="Count Paste.Events" style="rounded=0;whiteSpace=wrap;html=1;labelBackgroundColor=none;fillColor=#A8DADC;strokeColor=#457B9D;fontColor=#1D3557;" parent="WIyWlLk6GJQsqaUBKTNV-1" vertex="1">
          <mxGeometry x="1310" y="1139" width="110" height="60" as="geometry" />
        </mxCell>
        <mxCell id="qUJMt_EVvqmMXiAQpJi--106" value="&lt;span style=&quot;text-align: left;&quot;&gt;Enter/Return&lt;/span&gt;" style="rounded=0;whiteSpace=wrap;html=1;labelBackgroundColor=none;fillColor=#A8DADC;strokeColor=#457B9D;fontColor=#1D3557;" parent="WIyWlLk6GJQsqaUBKTNV-1" vertex="1">
          <mxGeometry x="660" y="1000" width="110" height="60" as="geometry" />
        </mxCell>
        <mxCell id="qUJMt_EVvqmMXiAQpJi--107" value="&lt;span style=&quot;text-align: left;&quot;&gt;Backspace&lt;/span&gt;" style="rounded=0;whiteSpace=wrap;html=1;labelBackgroundColor=none;fillColor=#A8DADC;strokeColor=#457B9D;fontColor=#1D3557;" parent="WIyWlLk6GJQsqaUBKTNV-1" vertex="1">
          <mxGeometry x="660" y="930" width="110" height="60" as="geometry" />
        </mxCell>
        <mxCell id="qUJMt_EVvqmMXiAQpJi--108" value="&lt;span style=&quot;text-align: left;&quot;&gt;Shift&lt;/span&gt;" style="rounded=0;whiteSpace=wrap;html=1;labelBackgroundColor=none;fillColor=#A8DADC;strokeColor=#457B9D;fontColor=#1D3557;" parent="WIyWlLk6GJQsqaUBKTNV-1" vertex="1">
          <mxGeometry x="660" y="1140" width="110" height="60" as="geometry" />
        </mxCell>
        <mxCell id="qUJMt_EVvqmMXiAQpJi--109" value="&lt;span style=&quot;text-align: left;&quot;&gt;Delete&lt;/span&gt;" style="rounded=0;whiteSpace=wrap;html=1;labelBackgroundColor=none;fillColor=#A8DADC;strokeColor=#457B9D;fontColor=#1D3557;" parent="WIyWlLk6GJQsqaUBKTNV-1" vertex="1">
          <mxGeometry x="660" y="1070" width="110" height="60" as="geometry" />
        </mxCell>
        <mxCell id="qUJMt_EVvqmMXiAQpJi--110" value="" style="endArrow=classic;html=1;rounded=0;entryX=0;entryY=0.5;entryDx=0;entryDy=0;labelBackgroundColor=none;strokeColor=#457B9D;fontColor=default;" parent="WIyWlLk6GJQsqaUBKTNV-1" edge="1">
          <mxGeometry width="50" height="50" relative="1" as="geometry">
            <mxPoint x="630" y="959.75" as="sourcePoint" />
            <mxPoint x="660" y="959.7500000000002" as="targetPoint" />
          </mxGeometry>
        </mxCell>
        <mxCell id="qUJMt_EVvqmMXiAQpJi--111" value="Ctrl + Z&lt;div&gt;&lt;br style=&quot;text-align: left;&quot;&gt;&lt;/div&gt;" style="rounded=0;whiteSpace=wrap;html=1;labelBackgroundColor=none;fillColor=#A8DADC;strokeColor=#457B9D;fontColor=#1D3557;" parent="WIyWlLk6GJQsqaUBKTNV-1" vertex="1">
          <mxGeometry x="660" y="1210" width="110" height="60" as="geometry" />
        </mxCell>
        <mxCell id="qUJMt_EVvqmMXiAQpJi--113" value="" style="strokeWidth=2;html=1;shape=mxgraph.flowchart.annotation_2;align=left;labelPosition=right;pointerEvents=1;rounded=0;labelBackgroundColor=none;fillColor=#A8DADC;strokeColor=#457B9D;fontColor=#1D3557;" parent="WIyWlLk6GJQsqaUBKTNV-1" vertex="1">
          <mxGeometry x="1420" y="945" width="50" height="30" as="geometry" />
        </mxCell>
        <mxCell id="qUJMt_EVvqmMXiAQpJi--115" value="Normal" style="text;html=1;align=center;verticalAlign=middle;resizable=0;points=[];autosize=1;strokeColor=#d6b656;fillColor=#fff2cc;rounded=0;labelBackgroundColor=none;" parent="WIyWlLk6GJQsqaUBKTNV-1" vertex="1">
          <mxGeometry x="1470" y="930" width="60" height="30" as="geometry" />
        </mxCell>
        <mxCell id="qUJMt_EVvqmMXiAQpJi--117" value="" style="endArrow=none;html=1;rounded=0;exitX=1.044;exitY=0.535;exitDx=0;exitDy=0;exitPerimeter=0;labelBackgroundColor=none;strokeColor=#457B9D;fontColor=default;" parent="WIyWlLk6GJQsqaUBKTNV-1" source="qUJMt_EVvqmMXiAQpJi--128" edge="1">
          <mxGeometry width="50" height="50" relative="1" as="geometry">
            <mxPoint x="1510" y="976.25" as="sourcePoint" />
            <mxPoint x="1560" y="1480" as="targetPoint" />
            <Array as="points">
              <mxPoint x="1560" y="976" />
            </Array>
          </mxGeometry>
        </mxCell>
        <mxCell id="qUJMt_EVvqmMXiAQpJi--128" value="High" style="text;html=1;align=center;verticalAlign=middle;resizable=0;points=[];autosize=1;strokeColor=#23445d;fillColor=#bac8d3;rounded=0;labelBackgroundColor=none;" parent="WIyWlLk6GJQsqaUBKTNV-1" vertex="1">
          <mxGeometry x="1470" y="960" width="50" height="30" as="geometry" />
        </mxCell>
        <mxCell id="qUJMt_EVvqmMXiAQpJi--133" value="" style="endArrow=none;html=1;rounded=0;labelBackgroundColor=none;strokeColor=#457B9D;fontColor=default;" parent="WIyWlLk6GJQsqaUBKTNV-1" edge="1">
          <mxGeometry width="50" height="50" relative="1" as="geometry">
            <mxPoint x="629" y="1240" as="sourcePoint" />
            <mxPoint x="629.0899999999999" y="919" as="targetPoint" />
          </mxGeometry>
        </mxCell>
        <mxCell id="qUJMt_EVvqmMXiAQpJi--134" value="" style="endArrow=classic;html=1;rounded=0;entryX=0;entryY=0.5;entryDx=0;entryDy=0;labelBackgroundColor=none;strokeColor=#457B9D;fontColor=default;" parent="WIyWlLk6GJQsqaUBKTNV-1" edge="1">
          <mxGeometry width="50" height="50" relative="1" as="geometry">
            <mxPoint x="630" y="1239.26" as="sourcePoint" />
            <mxPoint x="660" y="1239.2600000000002" as="targetPoint" />
          </mxGeometry>
        </mxCell>
        <mxCell id="qUJMt_EVvqmMXiAQpJi--135" value="" style="endArrow=classic;html=1;rounded=0;entryX=0;entryY=0.5;entryDx=0;entryDy=0;labelBackgroundColor=none;strokeColor=#457B9D;fontColor=default;" parent="WIyWlLk6GJQsqaUBKTNV-1" edge="1">
          <mxGeometry width="50" height="50" relative="1" as="geometry">
            <mxPoint x="630" y="1169.26" as="sourcePoint" />
            <mxPoint x="660" y="1169.2600000000002" as="targetPoint" />
          </mxGeometry>
        </mxCell>
        <mxCell id="qUJMt_EVvqmMXiAQpJi--136" value="" style="endArrow=classic;html=1;rounded=0;entryX=0;entryY=0.5;entryDx=0;entryDy=0;labelBackgroundColor=none;strokeColor=#457B9D;fontColor=default;" parent="WIyWlLk6GJQsqaUBKTNV-1" edge="1">
          <mxGeometry width="50" height="50" relative="1" as="geometry">
            <mxPoint x="630" y="1040" as="sourcePoint" />
            <mxPoint x="660" y="1040.0000000000002" as="targetPoint" />
          </mxGeometry>
        </mxCell>
        <mxCell id="qUJMt_EVvqmMXiAQpJi--139" value="" style="endArrow=classic;html=1;rounded=0;entryX=0;entryY=0.5;entryDx=0;entryDy=0;labelBackgroundColor=none;strokeColor=#457B9D;fontColor=default;" parent="WIyWlLk6GJQsqaUBKTNV-1" edge="1">
          <mxGeometry width="50" height="50" relative="1" as="geometry">
            <mxPoint x="630" y="1099.63" as="sourcePoint" />
            <mxPoint x="660" y="1099.6300000000003" as="targetPoint" />
          </mxGeometry>
        </mxCell>
        <mxCell id="qUJMt_EVvqmMXiAQpJi--141" value="" style="endArrow=classic;html=1;rounded=0;entryX=0;entryY=0.5;entryDx=0;entryDy=0;labelBackgroundColor=none;strokeColor=#457B9D;fontColor=default;" parent="WIyWlLk6GJQsqaUBKTNV-1" target="qUJMt_EVvqmMXiAQpJi--103" edge="1">
          <mxGeometry width="50" height="50" relative="1" as="geometry">
            <mxPoint x="1260" y="1099.69" as="sourcePoint" />
            <mxPoint x="1300" y="1100" as="targetPoint" />
          </mxGeometry>
        </mxCell>
        <mxCell id="qUJMt_EVvqmMXiAQpJi--142" value="" style="strokeWidth=2;html=1;shape=mxgraph.flowchart.annotation_2;align=left;labelPosition=right;pointerEvents=1;rounded=0;labelBackgroundColor=none;fillColor=#A8DADC;strokeColor=#457B9D;fontColor=#1D3557;" parent="WIyWlLk6GJQsqaUBKTNV-1" vertex="1">
          <mxGeometry x="1420" y="1015" width="50" height="30" as="geometry" />
        </mxCell>
        <mxCell id="qUJMt_EVvqmMXiAQpJi--143" value="" style="strokeWidth=2;html=1;shape=mxgraph.flowchart.annotation_2;align=left;labelPosition=right;pointerEvents=1;rounded=0;labelBackgroundColor=none;fillColor=#A8DADC;strokeColor=#457B9D;fontColor=#1D3557;" parent="WIyWlLk6GJQsqaUBKTNV-1" vertex="1">
          <mxGeometry x="1420" y="1085" width="50" height="30" as="geometry" />
        </mxCell>
        <mxCell id="qUJMt_EVvqmMXiAQpJi--144" value="" style="strokeWidth=2;html=1;shape=mxgraph.flowchart.annotation_2;align=left;labelPosition=right;pointerEvents=1;rounded=0;labelBackgroundColor=none;fillColor=#A8DADC;strokeColor=#457B9D;fontColor=#1D3557;" parent="WIyWlLk6GJQsqaUBKTNV-1" vertex="1">
          <mxGeometry x="1420" y="1155" width="50" height="30" as="geometry" />
        </mxCell>
        <mxCell id="qUJMt_EVvqmMXiAQpJi--145" value="Normal" style="text;html=1;align=center;verticalAlign=middle;resizable=0;points=[];autosize=1;strokeColor=#d6b656;fillColor=#fff2cc;rounded=0;labelBackgroundColor=none;" parent="WIyWlLk6GJQsqaUBKTNV-1" vertex="1">
          <mxGeometry x="1470" y="1140" width="60" height="30" as="geometry" />
        </mxCell>
        <mxCell id="qUJMt_EVvqmMXiAQpJi--146" value="Normal" style="text;html=1;align=center;verticalAlign=middle;resizable=0;points=[];autosize=1;strokeColor=#d6b656;fillColor=#fff2cc;rounded=0;labelBackgroundColor=none;" parent="WIyWlLk6GJQsqaUBKTNV-1" vertex="1">
          <mxGeometry x="1470" y="1070" width="60" height="30" as="geometry" />
        </mxCell>
        <mxCell id="qUJMt_EVvqmMXiAQpJi--147" value="Normal" style="text;html=1;align=center;verticalAlign=middle;resizable=0;points=[];autosize=1;strokeColor=#d6b656;fillColor=#fff2cc;rounded=0;labelBackgroundColor=none;" parent="WIyWlLk6GJQsqaUBKTNV-1" vertex="1">
          <mxGeometry x="1470" y="1000" width="60" height="30" as="geometry" />
        </mxCell>
        <mxCell id="qUJMt_EVvqmMXiAQpJi--148" value="High" style="text;html=1;align=center;verticalAlign=middle;resizable=0;points=[];autosize=1;strokeColor=#23445d;fillColor=#bac8d3;rounded=0;labelBackgroundColor=none;" parent="WIyWlLk6GJQsqaUBKTNV-1" vertex="1">
          <mxGeometry x="1470" y="1030" width="50" height="30" as="geometry" />
        </mxCell>
        <mxCell id="qUJMt_EVvqmMXiAQpJi--149" value="High" style="text;html=1;align=center;verticalAlign=middle;resizable=0;points=[];autosize=1;strokeColor=#23445d;fillColor=#bac8d3;rounded=0;labelBackgroundColor=none;" parent="WIyWlLk6GJQsqaUBKTNV-1" vertex="1">
          <mxGeometry x="1470" y="1100" width="50" height="30" as="geometry" />
        </mxCell>
        <mxCell id="qUJMt_EVvqmMXiAQpJi--150" value="High" style="text;html=1;align=center;verticalAlign=middle;resizable=0;points=[];autosize=1;strokeColor=#23445d;fillColor=#bac8d3;rounded=0;labelBackgroundColor=none;" parent="WIyWlLk6GJQsqaUBKTNV-1" vertex="1">
          <mxGeometry x="1470" y="1170" width="50" height="30" as="geometry" />
        </mxCell>
        <mxCell id="qUJMt_EVvqmMXiAQpJi--152" value="" style="endArrow=none;html=1;rounded=0;labelBackgroundColor=none;strokeColor=#457B9D;fontColor=default;" parent="WIyWlLk6GJQsqaUBKTNV-1" edge="1">
          <mxGeometry width="50" height="50" relative="1" as="geometry">
            <mxPoint x="1520" y="1045" as="sourcePoint" />
            <mxPoint x="1560" y="1045" as="targetPoint" />
          </mxGeometry>
        </mxCell>
        <mxCell id="qUJMt_EVvqmMXiAQpJi--153" value="" style="endArrow=none;html=1;rounded=0;labelBackgroundColor=none;strokeColor=#457B9D;fontColor=default;" parent="WIyWlLk6GJQsqaUBKTNV-1" edge="1">
          <mxGeometry width="50" height="50" relative="1" as="geometry">
            <mxPoint x="1520" y="1114.79" as="sourcePoint" />
            <mxPoint x="1560" y="1114.79" as="targetPoint" />
          </mxGeometry>
        </mxCell>
        <mxCell id="qUJMt_EVvqmMXiAQpJi--154" value="" style="endArrow=none;html=1;rounded=0;labelBackgroundColor=none;strokeColor=#457B9D;fontColor=default;" parent="WIyWlLk6GJQsqaUBKTNV-1" edge="1">
          <mxGeometry width="50" height="50" relative="1" as="geometry">
            <mxPoint x="1520" y="1184.79" as="sourcePoint" />
            <mxPoint x="1560" y="1184.79" as="targetPoint" />
          </mxGeometry>
        </mxCell>
        <mxCell id="qUJMt_EVvqmMXiAQpJi--157" value="" style="endArrow=none;html=1;rounded=0;labelBackgroundColor=none;strokeColor=#457B9D;fontColor=default;" parent="WIyWlLk6GJQsqaUBKTNV-1" edge="1">
          <mxGeometry width="50" height="50" relative="1" as="geometry">
            <mxPoint x="770" y="960" as="sourcePoint" />
            <mxPoint x="830" y="960" as="targetPoint" />
          </mxGeometry>
        </mxCell>
        <mxCell id="qUJMt_EVvqmMXiAQpJi--158" value="Does not occur" style="text;html=1;align=center;verticalAlign=middle;resizable=0;points=[];autosize=1;strokeColor=#314354;fillColor=#647687;rounded=0;labelBackgroundColor=none;fontColor=#ffffff;" parent="WIyWlLk6GJQsqaUBKTNV-1" vertex="1">
          <mxGeometry x="830" y="945" width="100" height="30" as="geometry" />
        </mxCell>
        <mxCell id="qUJMt_EVvqmMXiAQpJi--160" value="" style="endArrow=none;html=1;rounded=0;labelBackgroundColor=none;strokeColor=#457B9D;fontColor=default;" parent="WIyWlLk6GJQsqaUBKTNV-1" edge="1">
          <mxGeometry width="50" height="50" relative="1" as="geometry">
            <mxPoint x="770" y="1030" as="sourcePoint" />
            <mxPoint x="830" y="1030" as="targetPoint" />
          </mxGeometry>
        </mxCell>
        <mxCell id="qUJMt_EVvqmMXiAQpJi--161" value="" style="endArrow=none;html=1;rounded=0;labelBackgroundColor=none;strokeColor=#457B9D;fontColor=default;" parent="WIyWlLk6GJQsqaUBKTNV-1" edge="1">
          <mxGeometry width="50" height="50" relative="1" as="geometry">
            <mxPoint x="770" y="1169.6399999999999" as="sourcePoint" />
            <mxPoint x="830" y="1169.6399999999999" as="targetPoint" />
          </mxGeometry>
        </mxCell>
        <mxCell id="qUJMt_EVvqmMXiAQpJi--162" value="" style="endArrow=none;html=1;rounded=0;labelBackgroundColor=none;strokeColor=#457B9D;fontColor=default;" parent="WIyWlLk6GJQsqaUBKTNV-1" edge="1">
          <mxGeometry width="50" height="50" relative="1" as="geometry">
            <mxPoint x="770" y="1239.6399999999999" as="sourcePoint" />
            <mxPoint x="830" y="1239.6399999999999" as="targetPoint" />
          </mxGeometry>
        </mxCell>
        <mxCell id="qUJMt_EVvqmMXiAQpJi--163" value="" style="endArrow=none;html=1;rounded=0;labelBackgroundColor=none;strokeColor=#457B9D;fontColor=default;" parent="WIyWlLk6GJQsqaUBKTNV-1" edge="1">
          <mxGeometry width="50" height="50" relative="1" as="geometry">
            <mxPoint x="770" y="1100" as="sourcePoint" />
            <mxPoint x="830" y="1100" as="targetPoint" />
          </mxGeometry>
        </mxCell>
        <mxCell id="qUJMt_EVvqmMXiAQpJi--164" value="Does not occur" style="text;html=1;align=center;verticalAlign=middle;resizable=0;points=[];autosize=1;strokeColor=#314354;fillColor=#647687;rounded=0;labelBackgroundColor=none;fontColor=#ffffff;" parent="WIyWlLk6GJQsqaUBKTNV-1" vertex="1">
          <mxGeometry x="830" y="1085" width="100" height="30" as="geometry" />
        </mxCell>
        <mxCell id="qUJMt_EVvqmMXiAQpJi--165" value="Does not occur" style="text;html=1;align=center;verticalAlign=middle;resizable=0;points=[];autosize=1;strokeColor=#314354;fillColor=#647687;rounded=0;labelBackgroundColor=none;fontColor=#ffffff;" parent="WIyWlLk6GJQsqaUBKTNV-1" vertex="1">
          <mxGeometry x="830" y="1225" width="100" height="30" as="geometry" />
        </mxCell>
        <mxCell id="qUJMt_EVvqmMXiAQpJi--166" value="Does not occur" style="text;html=1;align=center;verticalAlign=middle;resizable=0;points=[];autosize=1;strokeColor=#314354;fillColor=#647687;rounded=0;labelBackgroundColor=none;fontColor=#ffffff;" parent="WIyWlLk6GJQsqaUBKTNV-1" vertex="1">
          <mxGeometry x="830" y="1160" width="100" height="30" as="geometry" />
        </mxCell>
        <mxCell id="qUJMt_EVvqmMXiAQpJi--167" value="Does not occur" style="text;html=1;align=center;verticalAlign=middle;resizable=0;points=[];autosize=1;strokeColor=#314354;fillColor=#647687;rounded=0;labelBackgroundColor=none;fontColor=#ffffff;" parent="WIyWlLk6GJQsqaUBKTNV-1" vertex="1">
          <mxGeometry x="830" y="1015" width="100" height="30" as="geometry" />
        </mxCell>
        <mxCell id="qUJMt_EVvqmMXiAQpJi--168" value="" style="endArrow=none;html=1;rounded=0;labelBackgroundColor=none;strokeColor=#457B9D;fontColor=default;" parent="WIyWlLk6GJQsqaUBKTNV-1" edge="1">
          <mxGeometry width="50" height="50" relative="1" as="geometry">
            <mxPoint x="930" y="960" as="sourcePoint" />
            <mxPoint x="1010" y="960" as="targetPoint" />
          </mxGeometry>
        </mxCell>
        <mxCell id="qUJMt_EVvqmMXiAQpJi--169" value="" style="endArrow=none;html=1;rounded=0;exitX=1.044;exitY=0.535;exitDx=0;exitDy=0;exitPerimeter=0;labelBackgroundColor=none;strokeColor=#457B9D;fontColor=default;" parent="WIyWlLk6GJQsqaUBKTNV-1" edge="1">
          <mxGeometry width="50" height="50" relative="1" as="geometry">
            <mxPoint x="990" y="960" as="sourcePoint" />
            <mxPoint x="1028" y="1480" as="targetPoint" />
            <Array as="points">
              <mxPoint x="1028" y="960" />
            </Array>
          </mxGeometry>
        </mxCell>
        <mxCell id="qUJMt_EVvqmMXiAQpJi--171" value="" style="endArrow=none;html=1;rounded=0;exitX=0.996;exitY=0.49;exitDx=0;exitDy=0;exitPerimeter=0;labelBackgroundColor=none;strokeColor=#457B9D;fontColor=default;" parent="WIyWlLk6GJQsqaUBKTNV-1" source="qUJMt_EVvqmMXiAQpJi--167" edge="1">
          <mxGeometry width="50" height="50" relative="1" as="geometry">
            <mxPoint x="940" y="1030" as="sourcePoint" />
            <mxPoint x="1030" y="1030" as="targetPoint" />
          </mxGeometry>
        </mxCell>
        <mxCell id="qUJMt_EVvqmMXiAQpJi--172" value="" style="endArrow=none;html=1;rounded=0;exitX=0.996;exitY=0.49;exitDx=0;exitDy=0;exitPerimeter=0;labelBackgroundColor=none;strokeColor=#457B9D;fontColor=default;" parent="WIyWlLk6GJQsqaUBKTNV-1" edge="1">
          <mxGeometry width="50" height="50" relative="1" as="geometry">
            <mxPoint x="930" y="1239.83" as="sourcePoint" />
            <mxPoint x="1030" y="1239.83" as="targetPoint" />
          </mxGeometry>
        </mxCell>
        <mxCell id="qUJMt_EVvqmMXiAQpJi--173" value="" style="endArrow=none;html=1;rounded=0;exitX=0.996;exitY=0.49;exitDx=0;exitDy=0;exitPerimeter=0;labelBackgroundColor=none;strokeColor=#457B9D;fontColor=default;" parent="WIyWlLk6GJQsqaUBKTNV-1" edge="1">
          <mxGeometry width="50" height="50" relative="1" as="geometry">
            <mxPoint x="930" y="1174.83" as="sourcePoint" />
            <mxPoint x="1030" y="1175" as="targetPoint" />
          </mxGeometry>
        </mxCell>
        <mxCell id="qUJMt_EVvqmMXiAQpJi--174" value="" style="endArrow=none;html=1;rounded=0;exitX=0.996;exitY=0.49;exitDx=0;exitDy=0;exitPerimeter=0;labelBackgroundColor=none;strokeColor=#457B9D;fontColor=default;" parent="WIyWlLk6GJQsqaUBKTNV-1" edge="1">
          <mxGeometry width="50" height="50" relative="1" as="geometry">
            <mxPoint x="930" y="1100" as="sourcePoint" />
            <mxPoint x="1030" y="1100" as="targetPoint" />
          </mxGeometry>
        </mxCell>
        <mxCell id="qUJMt_EVvqmMXiAQpJi--175" value="" style="edgeStyle=segmentEdgeStyle;endArrow=classic;html=1;curved=0;rounded=0;endSize=8;startSize=8;exitX=1;exitY=0.5;exitDx=0;exitDy=0;entryX=0.5;entryY=0;entryDx=0;entryDy=0;labelBackgroundColor=none;strokeColor=#457B9D;fontColor=default;" parent="WIyWlLk6GJQsqaUBKTNV-1" source="qUJMt_EVvqmMXiAQpJi--36" target="qUJMt_EVvqmMXiAQpJi--43" edge="1">
          <mxGeometry width="50" height="50" relative="1" as="geometry">
            <mxPoint x="350" y="230" as="sourcePoint" />
            <mxPoint x="1910" y="1390" as="targetPoint" />
            <Array as="points">
              <mxPoint x="1910" y="230" />
            </Array>
          </mxGeometry>
        </mxCell>
        <mxCell id="qUJMt_EVvqmMXiAQpJi--176" value="AI Has Been Used" style="rounded=0;whiteSpace=wrap;html=1;labelBackgroundColor=none;fillColor=#A8DADC;strokeColor=#457B9D;fontColor=#1D3557;" parent="WIyWlLk6GJQsqaUBKTNV-1" vertex="1">
          <mxGeometry x="1760" y="1580" width="120" height="60" as="geometry" />
        </mxCell>
        <mxCell id="qUJMt_EVvqmMXiAQpJi--177" value="" style="endArrow=none;html=1;rounded=0;labelBackgroundColor=none;strokeColor=#457B9D;fontColor=default;" parent="WIyWlLk6GJQsqaUBKTNV-1" edge="1">
          <mxGeometry width="50" height="50" relative="1" as="geometry">
            <mxPoint x="1660" y="1030" as="sourcePoint" />
            <mxPoint x="1660" y="1480" as="targetPoint" />
          </mxGeometry>
        </mxCell>
        <mxCell id="qUJMt_EVvqmMXiAQpJi--178" value="" style="endArrow=classic;html=1;rounded=0;labelBackgroundColor=none;strokeColor=#457B9D;fontColor=default;" parent="WIyWlLk6GJQsqaUBKTNV-1" edge="1">
          <mxGeometry width="50" height="50" relative="1" as="geometry">
            <mxPoint x="1030" y="1480" as="sourcePoint" />
            <mxPoint x="1840" y="1480" as="targetPoint" />
          </mxGeometry>
        </mxCell>
      </root>
    </mxGraphModel>
  </diagram>
</mxfile>
